<svg width="46" height="46" fill="none" stroke="white" stroke-linejoin="round" stroke-width="1.5" viewBox="0 0 24 24" xmlns="http://www.w3.org/2000/svg">
  <path d="M9 3H4a1 1 0 0 0-1 1v5a1 1 0 0 0 1 1h5a1 1 0 0 0 1-1V4a1 1 0 0 0-1-1Z"></path>
  <path d="M9 14H4a1 1 0 0 0-1 1v5a1 1 0 0 0 1 1h5a1 1 0 0 0 1-1v-5a1 1 0 0 0-1-1Z"></path>
  <path d="M20 3h-5a1 1 0 0 0-1 1v5a1 1 0 0 0 1 1h5a1 1 0 0 0 1-1V4a1 1 0 0 0-1-1Z"></path>
  <path d="M20 14h-5a1 1 0 0 0-1 1v5a1 1 0 0 0 1 1h5a1 1 0 0 0 1-1v-5a1 1 0 0 0-1-1Z"></path>
</svg>